<svg xmlns="http://www.w3.org/2000/svg" viewBox="0 0 512 512" xml:space="preserve"><path d="M227.627 251.998v-75.961l-.222-.077a47.477 47.477 0 0 1-31.311 11.743c-10.285 0-20.035-3.216-28.266-9.31a59.519 59.519 0 0 1-16.845 2.416c-32.905 0-59.676-26.766-59.676-59.665 0-32.906 26.771-59.676 59.676-59.676 8.112 0 15.958 1.596 23.356 4.75C186.349 31.332 218.885 8.052 256 8.052s69.65 23.28 81.662 58.165c7.399-3.152 15.244-4.75 23.357-4.75 32.905 0 59.676 26.77 59.676 59.676 0 32.9-26.771 59.665-59.676 59.665a59.478 59.478 0 0 1-16.845-2.416c-8.23 6.094-17.98 9.31-28.267 9.31a47.472 47.472 0 0 1-31.31-11.743l-.222.077v75.961h-56.748z" fill="#fbc640"/><path d="m67.78 503.946 100.424-157.81h60.026v2.013c0 11.338 9.225 20.563 20.563 20.563 11.333 0 20.553-9.225 20.553-20.563h4.026v73.465c0 10.606 8.629 19.234 19.234 19.234 5.141 0 9.972-2 13.604-5.63a19.11 19.11 0 0 0 5.631-13.604v-75.478h31.953l100.425 157.81H67.78z" fill="#917464"/><path d="M292.607 444.874c-12.826 0-23.26-10.434-23.26-23.26v-59.993c-4.396 6.69-11.968 11.117-20.553 11.117-12.88 0-23.48-9.955-24.507-22.576h-58.643l33.884-53.254h112.945l33.885 53.254h-30.49v71.452c0 6.217-2.419 12.059-6.811 16.45-4.39 4.392-10.233 6.81-16.45 6.81z" fill="#ff7d46"/><path d="M71.448 511.998h75.767l.05.002.049-.002h47.141l.024.001.035-.001h246.038a10.064 10.064 0 0 0 8.492-15.469L319.859 293.518a10.064 10.064 0 0 0-8.492-4.662H200.632a10.064 10.064 0 0 0-8.492 4.662L62.956 496.529a10.065 10.065 0 0 0 8.492 15.469zm134.71-203.012h99.684l18.516 29.098h-10.504c-5.558 0-10.065 4.506-10.065 10.065v73.465c0 2.99-1.161 5.799-3.274 7.91a11.105 11.105 0 0 1-7.908 3.271c-6.166 0-11.182-5.016-11.182-11.182v-73.464c0-5.559-4.507-10.065-10.065-10.065s-10.065 4.506-10.065 10.065c0 6.899-5.608 12.511-12.501 12.511-6.899 0-12.511-5.612-12.511-12.511 0-5.559-4.506-10.065-10.065-10.065h-38.576l18.516-29.098zm-31.326 49.228h42.915c4.253 13.087 16.559 22.576 31.046 22.576a32.45 32.45 0 0 0 12.501-2.495v43.319c0 17.266 14.047 31.312 31.312 31.312 8.368 0 16.234-3.256 22.143-9.168 5.913-5.912 9.169-13.776 9.169-22.144v-63.4h13.249l85.049 133.654H207.35l6.583-26.445c1.343-5.394-1.942-10.855-7.336-12.199-5.391-1.342-10.855 1.943-12.199 7.336l-7.793 31.307h-25.522l18.041-55.958c1.706-5.29-1.201-10.962-6.491-12.668-5.288-1.702-10.962 1.2-12.668 6.491l-20.031 62.133H89.783l85.049-133.651zM150.982 188.86c5.193 0 10.328-.586 15.326-1.745 8.894 5.668 19.092 8.64 29.785 8.64a55.594 55.594 0 0 0 23.482-5.183v59.414c0 5.559 4.506 10.065 10.065 10.065s10.065-4.506 10.065-10.065v-75.397c0-4.369-2.819-8.239-6.978-9.58a67.567 67.567 0 0 1-2.336-.805 10.063 10.063 0 0 0-10.25 2.05 35.442 35.442 0 0 1-24.047 9.373c-7.935 0-15.442-2.565-21.708-7.416a10.07 10.07 0 0 0-9.179-1.644 47.39 47.39 0 0 1-14.224 2.164c-26.246 0-47.598-21.348-47.598-47.587 0-26.246 21.352-47.598 47.598-47.598 7.081 0 13.903 1.523 20.279 4.526a10.066 10.066 0 0 0 13.886-6.073C194.949 40.974 223.423 20.13 256 20.13s61.05 20.844 70.853 51.868a10.068 10.068 0 0 0 13.886 6.073c6.377-3.003 13.199-4.526 20.28-4.526 26.246 0 47.598 21.352 47.598 47.598 0 26.24-21.352 47.587-47.598 47.587-4.868 0-9.654-.729-14.224-2.164a10.069 10.069 0 0 0-9.178 1.644c-6.267 4.851-13.775 7.416-21.709 7.416a35.437 35.437 0 0 1-24.046-9.372 10.064 10.064 0 0 0-10.251-2.051c-.771.28-1.55.553-2.338.806a10.067 10.067 0 0 0-6.976 9.58v75.397c0 5.559 4.507 10.065 10.065 10.065s10.065-4.506 10.065-10.065v-59.413a55.574 55.574 0 0 0 23.481 5.182c10.693 0 20.891-2.972 29.786-8.64a67.784 67.784 0 0 0 15.326 1.745c37.345 0 67.728-30.378 67.728-67.718 0-37.345-30.383-67.728-67.728-67.728-6.405 0-12.666.878-18.711 2.618C327.31 22.124 293.833 0 256 0s-71.311 22.124-86.308 56.032a67.43 67.43 0 0 0-18.71-2.618c-37.345 0-67.728 30.382-67.728 67.728 0 37.34 30.383 67.718 67.728 67.718z"/><path d="M210.708 443.868c12.953 0 12.974-20.13 0-20.13-12.953 0-12.975 20.13 0 20.13z"/></svg>
